<?xml version="1.0" encoding="UTF-8" standalone="no"?>
<svg
   xmlns:dc="http://purl.org/dc/elements/1.1/"
   xmlns:cc="http://creativecommons.org/ns#"
   xmlns:rdf="http://www.w3.org/1999/02/22-rdf-syntax-ns#"
   xmlns:svg="http://www.w3.org/2000/svg"
   xmlns="http://www.w3.org/2000/svg"
   xmlns:sodipodi="http://sodipodi.sourceforge.net/DTD/sodipodi-0.dtd"
   xmlns:inkscape="http://www.inkscape.org/namespaces/inkscape"
   id="svg43"
   style="clip-rule:evenodd;fill-rule:evenodd;stroke-linejoin:round;stroke-miterlimit:1.41420996"
   xml:space="preserve"
   version="1.1"
   viewBox="0 0 2834.6453 793.70078"
   height="210mm"
   width="750mm"
   sodipodi:docname="crabik-logo (копия).svg"
   inkscape:version="0.92.5 (2060ec1f9f, 2020-04-08)"><sodipodi:namedview
   pagecolor="#ffffff"
   bordercolor="#666666"
   borderopacity="1"
   objecttolerance="10"
   gridtolerance="10"
   guidetolerance="10"
   inkscape:pageopacity="0"
   inkscape:pageshadow="2"
   inkscape:window-width="1920"
   inkscape:window-height="1016"
   id="namedview39"
   showgrid="false"
   inkscape:zoom="0.29734127"
   inkscape:cx="1812.6233"
   inkscape:cy="882.83564"
   inkscape:window-x="0"
   inkscape:window-y="27"
   inkscape:window-maximized="1"
   inkscape:current-layer="svg43" /><metadata
   id="metadata49"><rdf:RDF><cc:Work
       rdf:about=""><dc:format>image/svg+xml</dc:format><dc:type
         rdf:resource="http://purl.org/dc/dcmitype/StillImage" /><dc:title></dc:title></cc:Work></rdf:RDF></metadata><defs
   id="defs47">
        
        
        
        
        
        
        
        
        
        
    
            
        </defs>
    
<g
   transform="translate(0,-718.11023)"
   id="layer2" /><g
   transform="translate(0,-718.11023)"
   id="layer1" />
   <g
   id="g878"
   transform="translate(14,-12)"><g
     id="layer3"
     transform="translate(0,-718.11023)"><g
       id="g1166"
       transform="translate(-1.6949153,5.0847458)"><g
         transform="translate(692.75064,1430.5064)"
         id="g4"
         style="clip-rule:evenodd;fill-rule:evenodd;stroke-linejoin:round;stroke-miterlimit:1.41420996">
            <path
   inkscape:connector-curvature="0"
   d="m 0,-322.648 c -114.597,0 -218.172,13.779 -296.172,36.229 v -5.071 c -78,25.095 -127.681,59.959 -127.681,98.506 0,6.077 1.345,12.062 3.703,17.931 l -7.984,14.321 c 0,0 -6.413,8.359 4.935,25.999 10.01,15.554 60.164,76.438 86.628,108.32 11.367,16.348 19.083,26.413 19.757,25.44 1.061,-1.543 -7.064,-32.229 -29.639,-67.242 -10.533,-18.805 -23.358,-43.719 -30.908,-62.12 21.081,13.342 49.189,25.445 81.189,35.861 v -0.159 c 78,22.453 181.575,36.229 296.172,36.229 131.156,0 248.828,-18.046 327.828,-46.491 V -276.153 C 248.828,-304.6 131.156,-322.648 0,-322.648"
   style="fill:#a52b00;fill-rule:nonzero"
   id="path2" />
        </g><g
         transform="translate(1138.4486,1317.0874)"
         id="g8"
         style="clip-rule:evenodd;fill-rule:evenodd;stroke-linejoin:round;stroke-miterlimit:1.41420996">
            <path
   inkscape:connector-curvature="0"
   d="m 0,-50.399 -13.433,-27.828 c 0.071,-1.056 0.124,-2.114 0.124,-3.175 0,-31.548 -32.805,-60.62 -87.997,-83.901 V 2.499 c 25.751,-10.864 46.645,-22.984 61.586,-36.037 -4.398,17.683 -19.437,53.455 -31.428,78.611 -19.707,35.981 -26.845,67.303 -25.929,68.853 0.584,0.978 7.307,-9.393 17.222,-26.2 C -56.783,54.85 -13.063,-7.914 -4.325,-23.901 5.574,-42.024 0,-50.399 0,-50.399"
   style="fill:#a52b00;fill-rule:nonzero"
   id="path6" />
        </g><g
         transform="translate(1216.4486,1039.3575)"
         id="g12"
         style="clip-rule:evenodd;fill-rule:evenodd;stroke-linejoin:round;stroke-miterlimit:1.41420996">
            <path
   inkscape:connector-curvature="0"
   d="m 0,227.175 -88.296,-65.043 c -0.83,-2.895 -1.66,-5.787 -2.516,-8.658 l 29.002,-42.016 c 2.961,-4.274 3.558,-9.829 1.635,-14.703 -1.925,-4.85 -6.136,-8.327 -11.117,-9.179 l -49.043,-8.321 c -1.898,-3.879 -3.89,-7.698 -5.889,-11.484 l 20.604,-47.172 c 2.119,-4.806 1.673,-10.39 -1.139,-14.751 -2.797,-4.383 -7.551,-6.942 -12.617,-6.743 l -49.77,1.809 c -2.577,-3.356 -5.194,-6.68 -7.866,-9.946 l 11.438,-50.56 c 1.159,-5.132 -0.302,-10.508 -3.879,-14.238 -3.555,-3.716 -8.722,-5.254 -13.636,-4.05 l -48.478,11.919 c -3.14,-2.775 -6.33,-5.513 -9.559,-8.196 l 1.745,-51.907 c 0.188,-5.254 -2.262,-10.247 -6.468,-13.163 -4.204,-2.934 -9.54,-3.376 -14.138,-1.196 l -45.226,21.502 c -3.64,-2.09 -7.302,-4.16 -11.005,-6.163 l -7.991,-51.148 c -0.812,-5.181 -4.146,-9.584 -8.815,-11.594 -4.655,-2.022 -9.99,-1.367 -14.077,1.71 l -40.321,30.253 c -3.97,-1.318 -7.958,-2.583 -11.996,-3.792 l -17.38,-48.504 c -1.766,-4.945 -5.842,-8.576 -10.81,-9.597 -4.953,-1.012 -10.048,0.703 -13.483,4.539 l -33.938,37.971 c -4.104,-0.471 -8.21,-0.901 -12.327,-1.259 l -26.208,-44.154 c -2.656,-4.472 -7.344,-7.193 -12.397,-7.193 -5.041,0 -9.739,2.721 -12.372,7.193 l -26.214,44.154 c -4.119,0.358 -8.244,0.788 -12.341,1.259 l -33.943,-37.971 c -3.437,-3.836 -8.551,-5.551 -13.487,-4.539 -4.966,1.035 -9.045,4.652 -10.806,9.597 l -17.393,48.504 c -4.027,1.209 -8.017,2.482 -11.997,3.792 l -40.308,-30.253 c -4.098,-3.088 -9.432,-3.741 -14.098,-1.71 -4.65,2.01 -7.997,6.413 -8.803,11.594 l -7.997,51.148 c -3.7,2.003 -7.363,4.062 -11.014,6.163 l -45.222,-21.502 c -4.592,-2.189 -9.952,-1.738 -14.135,1.196 -4.201,2.916 -6.656,7.909 -6.466,13.163 l 1.736,51.907 c -3.219,2.683 -6.403,5.421 -9.558,8.196 l -48.47,-11.919 c -4.925,-1.195 -10.086,0.334 -13.65,4.05 -3.585,3.73 -5.039,9.106 -3.885,14.238 l 11.415,50.56 c -2.649,3.279 -5.27,6.59 -7.839,9.946 l -49.771,-1.809 c -5.023,-0.148 -9.817,2.36 -12.623,6.743 -2.812,4.361 -3.237,9.945 -1.146,14.751 l 20.619,47.172 c -2.003,3.786 -3.992,7.605 -5.906,11.484 l -49.04,8.321 c -4.982,0.841 -9.183,4.316 -11.12,9.179 -1.925,4.874 -1.3,10.429 1.639,14.703 l 29.01,42.016 c -0.224,0.741 -0.43,1.49 -0.653,2.233 l -82.021,87.122 c 0,0 -12.56,9.851 5.73,33.002 16.14,20.421 98.993,101.376 142.752,143.789 18.483,21.532 31.143,34.866 32.466,33.712 2.088,-1.832 -8.871,-41.006 -45.275,-86.97 -28.06,-41.239 -64.478,-104.666 -55.939,-111.977 0,0 9.714,-12.331 29.204,-21.207 0.713,0.571 -0.737,-0.565 0,0 0,0 411.314,189.736 792.846,3.21 43.584,-7.817 69.968,15.529 69.968,15.529 9.099,5.276 -14.463,70.495 -33.838,113.666 -26.353,49.023 -30.217,87.276 -27.982,88.602 1.409,0.842 10.998,-13.747 24.674,-36.966 C -75.469,370.196 -11.675,280.554 0,258.781 13.239,234.094 0,227.175 0,227.175"
   style="fill:#f74c00;fill-rule:nonzero"
   id="path10" />
        </g><g
         transform="translate(834.43464,1227.0844)"
         id="g16"
         style="clip-rule:evenodd;fill-rule:evenodd;stroke-linejoin:round;stroke-miterlimit:1.41420996">
            <path
   inkscape:connector-curvature="0"
   d="m 0,159.631 c 1.575,-1.342 2.4,-2.139 2.4,-2.139 L -132.25,144.985 C -22.348,0 65.618,116.967 74.988,129.879 v 29.752 z"
   style="fill-rule:nonzero"
   id="path14" />
        </g><g
         id="g1114"><path
           inkscape:connector-curvature="0"
           d="m 316.99664,1226.9784 c 0,0 -111.096,-43.25 -129.876,-89.798 0,0 130.391,-103.7169 -25.621,-213.88595 l -4.229,140.41695 c 0,0 -46.226,-44.5939 -44.186,-122.68295 0,0 -143.773,69.17805 24.476,191.57695 0,0 5.676,65.698 156.977,145.017 z"
           style="clip-rule:evenodd;fill:#f74c00;fill-rule:nonzero;stroke-linejoin:round;stroke-miterlimit:1.41420996"
           id="path18" /></g><g
         transform="translate(768.52664,1254.6704)"
         id="g24"
         style="clip-rule:evenodd;fill-rule:evenodd;stroke-linejoin:round;stroke-miterlimit:1.41420996">
            <path
   inkscape:connector-curvature="0"
   d="m 0,-87.016 c 0,0 41.104,-45.009 82.21,0 0,0 32.297,60.013 0,90.016 0,0 -52.85,42.009 -82.21,0 0,0 -35.232,-33.006 0,-90.016"
   style="fill-rule:nonzero"
   id="path22" />
        </g><g
         transform="translate(816.11464,1184.3434)"
         id="g28"
         style="clip-rule:evenodd;fill-rule:evenodd;stroke-linejoin:round;stroke-miterlimit:1.41420996">
            <path
   inkscape:connector-curvature="0"
   d="m 0,0.008 c 0,17.523 -10.329,31.73 -23.07,31.73 -12.739,0 -23.069,-14.207 -23.069,-31.73 0,-17.529 10.33,-31.738 23.069,-31.738 12.741,0 23.07,14.209 23.07,31.738"
   style="fill:#ffffff;fill-rule:nonzero"
   id="path26" />
        </g><g
         transform="translate(585.06864,1248.4104)"
         id="g32"
         style="clip-rule:evenodd;fill-rule:evenodd;stroke-linejoin:round;stroke-miterlimit:1.41420996">
            <path
   inkscape:connector-curvature="0"
   d="m 0,-93.046 c 0,0 70.508,-31.219 89.753,38.463 0,0 20.159,81.218 -57.902,85.802 0,0 -99.541,-19.172 -31.851,-124.265"
   style="fill-rule:nonzero"
   id="path30" />
        </g><g
         transform="translate(620.48164,1185.4984)"
         id="g36"
         style="clip-rule:evenodd;fill-rule:evenodd;stroke-linejoin:round;stroke-miterlimit:1.41420996">
            <path
   inkscape:connector-curvature="0"
   d="m 0,0.002 c 0,18.072 -10.653,32.729 -23.794,32.729 -13.137,0 -23.792,-14.657 -23.792,-32.729 0,-18.078 10.655,-32.731 23.792,-32.731 C -10.653,-32.729 0,-18.076 0,0.002"
   style="fill:#ffffff;fill-rule:nonzero"
   id="path34" />
        </g><g
         transform="translate(1040.8086,1540.8264)"
         id="g40"
         style="clip-rule:evenodd;fill-rule:evenodd;stroke-linejoin:round;stroke-miterlimit:1.41420996">
            <path
   inkscape:connector-curvature="0"
   d="m 0,-296.808 c 0,0 -14.723,58.643 -106.292,120.267 l -25.678,6.018 c 0,0 -83.066,-151.481 -200.749,19.221 0,0 36.677,-21.354 135,4.65 0,0 -45.23,69.226 -136.342,67.099 0,0 87.313,104.749 220.18,-46.554 0,0 140.455,-54.315 151.845,-170.701 z"
   style="fill:#f74c00;fill-rule:nonzero"
   id="path38" />
        </g><g
         id="g1111"><path
           inkscape:connector-curvature="0"
           style="clip-rule:evenodd;fill-rule:evenodd;stroke-width:1.11123502;stroke-linejoin:round;stroke-miterlimit:1.41420996"
           d="m 188.62713,950.02326 a 39.906078,38.539025 0 0 1 -2.83824,-51.55718 l 0.29174,-0.34836 93.23781,90.04379 -0.36071,0.28174 a 39.916255,38.548853 0 0 1 -53.39167,-2.74647 z"
           id="path2-1" /><path
           inkscape:connector-curvature="0"
           style="clip-rule:evenodd;fill-rule:evenodd;stroke-width:1.11106718;stroke-linejoin:round;stroke-miterlimit:1.41420996"
           d="m 316.42494,839.03177 -87.74188,84.73613 23.10187,22.31048 87.74188,-84.73613 z"
           id="path4" /><path
           inkscape:connector-curvature="0"
           style="clip-rule:evenodd;fill-rule:evenodd;stroke-width:1.11123502;stroke-linejoin:round;stroke-miterlimit:1.41420996"
           d="m 423.58574,749.20885 3.80052,13.76511 -86.87496,83.8989 -9.02695,-8.71772 z"
           id="path6-2" /><path
           inkscape:connector-curvature="0"
           style="clip-rule:evenodd;fill-rule:evenodd;stroke-width:1.11123502;stroke-linejoin:round;stroke-miterlimit:1.41420996"
           d="m 72.427855,1127.8339 -18.008677,17.3929 a 21.903203,21.15287 0 1 1 -30.97524,-29.9152 l 18.008677,-17.3918 a 52.042655,50.259842 0 0 0 30.97524,29.9141 z"
           id="path8" /><path
           inkscape:connector-curvature="0"
           style="clip-rule:evenodd;fill-rule:evenodd;stroke-width:1.11123502;stroke-linejoin:round;stroke-miterlimit:1.41420996"
           d="m 61.518166,1108.4569 c -15.948933,-15.4394 -15.948933,-40.4325 0,-55.8719 L 171.70738,946.17056 c 2.37574,4.25724 5.38211,8.15686 8.92406,11.57557 l 36.94345,35.6779 c 3.54006,3.42084 7.57798,6.32458 11.98619,8.61947 L 119.37073,1108.459 c -15.98638,15.403 -41.866185,15.403 -57.852564,0 z"
           id="path12" /></g><path
         inkscape:connector-curvature="0"
         id="path18-9"
         style="clip-rule:evenodd;fill:#f74c00;fill-rule:nonzero;stroke-linejoin:round;stroke-miterlimit:1.41420996"
         d="m 316.99668,1226.9784 c 0,0 -111.096,-43.25 -129.876,-89.798 0,0 130.391,-103.717 -25.62104,-213.88598 l -4.229,140.41698 c -12.20909,39.8341 2.71307,-9.1547 -19.71,68.894 0,0 5.676,65.698 156.97704,145.017 z" /></g></g><g
     transform="matrix(4.7212622,0,0,4.4018942,1435.1852,222.34698)"
     style="font-size:12px;fill:#000000;fill-opacity:1;fill-rule:evenodd;stroke:#000000;stroke-width:0.25000001mm;stroke-linecap:round"
     font-size="9pt"
     id="svgGroup"><path
       style="vector-effect:non-scaling-stroke;fill:#000000;fill-opacity:1"
       inkscape:connector-curvature="0"
       id="path35"
       d="m 281.101,42.7 -9.9,8.4 13.3,11 a 39.872,39.872 0 0 1 1.07,0.93 q 1.486,1.342 2.015,2.166 a 3.318,3.318 0 0 1 0.065,0.104 5.309,5.309 0 0 1 0.414,0.861 q 0.236,0.638 0.236,1.239 a 5.255,5.255 0 0 1 -0.274,1.575 q -0.47,1.484 -1.749,3.411 a 30.304,30.304 0 0 1 -1.077,1.514 22.822,22.822 0 0 1 -1.45,1.637 q -1.649,1.678 -3.089,2.257 a 3.908,3.908 0 0 1 -1.461,0.306 4.797,4.797 0 0 1 -1.414,-0.242 q -1.914,-0.596 -4.686,-2.658 l -1,-0.7 q -2.3,-1.9 -7.1,-6.65 a 220.278,220.278 0 0 0 -2.257,-2.203 Q 259.576,62.6 257.701,61.1 v 7.7 q 0,2.3 -0.15,3.45 -0.15,1.15 -0.95,2.65 -1.052,2.103 -5.44,2.505 a 24.881,24.881 0 0 1 -2.26,0.095 q -6.3,0 -7.7,-2.7 a 12.937,12.937 0 0 1 -0.446,-1.07 q -0.192,-0.53 -0.301,-1.008 a 6.131,6.131 0 0 1 -0.103,-0.572 13.228,13.228 0 0 1 -0.073,-0.738 Q 240.201,70.353 240.201,68.7 V 8.8 q 0,-2.3 0.15,-3.45 0.116,-0.892 0.563,-1.995 A 13.967,13.967 0 0 1 241.201,2.7 3.856,3.856 0 0 1 242.878,1.095 Q 244.926,0 249.001,0 a 21.655,21.655 0 0 1 2.225,0.106 q 3.075,0.319 4.575,1.594 a 4.56,4.56 0 0 1 1.393,2.046 q 0.362,1.018 0.407,2.354 a 11.42,11.42 0 0 1 0.043,0.513 q 0.038,0.586 0.051,1.432 a 59.292,59.292 0 0 1 0.006,0.855 v 31.7 q 1.732,-1.444 5.179,-4.834 a 259.783,259.783 0 0 0 0.271,-0.266 216.752,216.752 0 0 1 1.709,-1.669 q 2.271,-2.191 3.603,-3.316 a 27.328,27.328 0 0 1 0.138,-0.115 l 1.2,-0.8 a 20.286,20.286 0 0 1 1.839,-1.275 q 1.992,-1.21 3.602,-1.393 a 4.968,4.968 0 0 1 0.559,-0.032 q 2.04,0 4.581,2.699 a 22.697,22.697 0 0 1 1.169,1.351 29.504,29.504 0 0 1 1.344,1.802 q 1.23,1.799 1.666,3.171 a 4.581,4.581 0 0 1 0.24,1.377 3.731,3.731 0 0 1 -0.398,1.593 q -0.592,1.252 -2.067,2.694 a 21.715,21.715 0 0 1 -1.235,1.113 z m -125.6,25.9 V 8.9 q 0,-2.3 0.15,-3.45 0.126,-0.968 0.642,-2.113 a 12.001,12.001 0 0 1 0.208,-0.437 3.856,3.856 0 0 1 1.677,-1.605 q 2.048,-1.095 6.123,-1.095 6.3,0 7.6,2.7 a 11.691,11.691 0 0 1 0.473,0.99 q 0.213,0.509 0.337,0.971 a 5.287,5.287 0 0 1 0.14,0.689 13.228,13.228 0 0 1 0.072,0.738 q 0.078,1.059 0.078,2.712 v 20.8 a 13.005,13.005 0 0 1 8.273,-4.657 19.288,19.288 0 0 1 3.127,-0.243 20.043,20.043 0 0 1 11.552,3.734 29.946,29.946 0 0 1 4.798,4.166 q 7.45,7.9 7.45,18.35 0,10.45 -7.4,18.3 -7.4,7.85 -15.9,7.85 a 23.636,23.636 0 0 1 -4.394,-0.38 q -2.44,-0.462 -4.304,-1.488 A 10.547,10.547 0 0 1 172.801,72.5 q -0.8,4.9 -8.6,4.9 -6.3,0 -7.7,-2.7 a 12.937,12.937 0 0 1 -0.446,-1.07 q -0.192,-0.53 -0.301,-1.008 a 6.131,6.131 0 0 1 -0.103,-0.572 13.228,13.228 0 0 1 -0.073,-0.738 q -0.077,-1.059 -0.077,-2.712 z m -115.8,-41.3 1.6,1 q 1.378,0.919 2.287,1.545 a 78.473,78.473 0 0 1 0.513,0.355 q 1.953,1.503 2.439,3.317 a 4.748,4.748 0 0 1 0.161,1.233 7.511,7.511 0 0 1 -0.347,2.179 q -0.285,0.94 -0.804,1.953 a 17.596,17.596 0 0 1 -0.949,1.618 24.274,24.274 0 0 1 -1.616,2.21 q -1.822,2.195 -3.565,2.925 A 4.422,4.422 0 0 1 37.701,46 Q 36.18,46 33.636,44.592 A 27.988,27.988 0 0 1 32.301,43.8 5.828,5.828 0 0 0 29.951,42.474 Q 28.721,42.1 27.151,42.1 a 9.25,9.25 0 0 0 -5.147,1.585 12.192,12.192 0 0 0 -1.103,0.815 7.841,7.841 0 0 0 -2.828,5.352 11.273,11.273 0 0 0 -0.072,1.298 10.322,10.322 0 0 0 0.361,2.809 7.49,7.49 0 0 0 2.439,3.791 10.848,10.848 0 0 0 2.423,1.564 8.333,8.333 0 0 0 3.527,0.786 10.365,10.365 0 0 0 5.857,-1.821 12.476,12.476 0 0 0 0.043,-0.029 q 2.213,-1.489 3.746,-1.779 a 3.784,3.784 0 0 1 0.704,-0.071 4.576,4.576 0 0 1 1.975,0.505 q 1.598,0.768 3.484,2.708 a 31.169,31.169 0 0 1 1.841,2.087 q 2.3,2.9 2.3,5.2 A 5.745,5.745 0 0 1 45.61,70.185 Q 44.34,72.04 41.593,73.76 A 24.31,24.31 0 0 1 41.201,74 21.648,21.648 0 0 1 32.6,77.527 29.556,29.556 0 0 1 27.201,78 26.684,26.684 0 0 1 14.468,74.688 36.229,36.229 0 0 1 9.301,71.3 22.397,22.397 0 0 1 4.276,65.737 28.219,28.219 0 0 1 2.601,62.75 26.148,26.148 0 0 1 0.046,52.644 30.966,30.966 0 0 1 0.001,50.95 27.663,27.663 0 0 1 0.966,43.535 24.175,24.175 0 0 1 2.601,39.25 26.187,26.187 0 0 1 6,33.993 21.946,21.946 0 0 1 9.301,30.8 q 8.3,-6.6 17.7,-6.6 3.8,0 7.4,1.05 a 46.871,46.871 0 0 1 1.874,0.587 q 1.687,0.57 2.799,1.125 a 10.399,10.399 0 0 1 0.627,0.338 z m 107.8,6.3 v 35 q 0,2.3 -0.15,3.45 -0.117,0.892 -0.564,1.995 a 13.967,13.967 0 0 1 -0.286,0.655 q -1.255,2.331 -5.764,2.572 a 20.324,20.324 0 0 1 -1.086,0.028 34.558,34.558 0 0 1 -2.357,-0.074 q -3.527,-0.242 -4.943,-1.276 A 5.14,5.14 0 0 1 130.377,72.968 7.261,7.261 0 0 1 130.201,72 q -3.384,4.847 -10.908,5.261 a 26.243,26.243 0 0 1 -1.442,0.039 19.241,19.241 0 0 1 -10.693,-3.322 q -2.756,-1.801 -5.357,-4.578 -7.4,-7.9 -7.4,-18.35 0,-10.45 7.45,-18.3 a 29.164,29.164 0 0 1 5.479,-4.589 19.942,19.942 0 0 1 10.871,-3.261 16.744,16.744 0 0 1 3.825,0.423 14.271,14.271 0 0 1 2.375,0.777 q 2.26,0.969 3.412,1.84 a 5.566,5.566 0 0 1 0.488,0.41 16.559,16.559 0 0 1 0.943,0.974 q 0.485,0.545 0.857,1.076 a 6.265,6.265 0 0 1 0.977,-2.877 q 1.577,-2.344 5.569,-2.67 a 16.638,16.638 0 0 1 1.354,-0.053 q 3.9,0 5.8,0.6 a 5.328,5.328 0 0 1 1.24,0.562 3.806,3.806 0 0 1 1.41,1.538 q 0.554,1.11 0.781,2.028 a 5.657,5.657 0 0 1 0.119,0.622 13.228,13.228 0 0 1 0.072,0.738 q 0.078,1.059 0.078,2.712 z m -76.7,14.2 v 21 q 0,2.3 -0.15,3.45 -0.15,1.15 -0.95,2.65 -1.236,2.142 -5.729,2.519 A 24.822,24.822 0 0 1 61.901,77.5 q -4.28,0 -6.413,-1.351 A 5.171,5.171 0 0 1 55.001,75.8 4.805,4.805 0 0 1 53.696,73.889 q -0.289,-0.74 -0.418,-1.65 A 10.248,10.248 0 0 1 53.201,71.5 V 68.6 33.5 q 0,-2.3 0.15,-3.45 0.126,-0.968 0.642,-2.113 a 12.001,12.001 0 0 1 0.208,-0.437 3.856,3.856 0 0 1 1.677,-1.605 q 2.048,-1.095 6.123,-1.095 6,0 7.5,2.3 a 6.566,6.566 0 0 1 0.789,1.522 5.282,5.282 0 0 1 0.311,1.778 10.043,10.043 0 0 1 0.356,-0.467 q 0.426,-0.528 1.052,-1.189 A 31.339,31.339 0 0 1 72.051,28.7 5.84,5.84 0 0 1 72.66,28.156 q 1.065,-0.841 3.231,-2.04 A 57.607,57.607 0 0 1 76.101,26 q 3.1,-1.7 5.45,-1.7 a 36.707,36.707 0 0 1 1.657,0.035 q 1.293,0.059 2.293,0.215 1.6,0.25 3.5,0.85 1.9,0.6 3.15,2.05 a 4.32,4.32 0 0 1 0.761,1.334 q 0.457,1.231 0.486,3.061 a 15.85,15.85 0 0 1 0.003,0.255 12.63,12.63 0 0 1 -0.418,3.132 q -0.355,1.387 -1.011,2.869 A 23.64,23.64 0 0 1 91.501,39.1 8.662,8.662 0 0 1 90.26,40.98 5.451,5.451 0 0 1 86.001,42.9 q -1.8,0 -3.45,-0.8 A 7.069,7.069 0 0 0 81.053,41.586 Q 80.317,41.416 79.45,41.347 A 15.795,15.795 0 0 0 78.201,41.3 7.592,7.592 0 0 0 74.044,42.554 9.912,9.912 0 0 0 73.151,43.2 6.963,6.963 0 0 0 71.719,44.737 5.395,5.395 0 0 0 70.801,47.8 Z m 143.9,20.9 V 33.6 q 0,-2.3 0.15,-3.45 0.116,-0.892 0.563,-1.995 a 13.967,13.967 0 0 1 0.287,-0.655 3.748,3.748 0 0 1 1.596,-1.503 q 1.467,-0.786 4.019,-1.009 a 25.23,25.23 0 0 1 2.185,-0.088 q 4.8,0 6.8,1.7 a 4.629,4.629 0 0 1 1.453,2.189 q 0.249,0.757 0.322,1.678 a 9.639,9.639 0 0 1 0.025,0.433 14.594,14.594 0 0 1 0.043,0.556 q 0.039,0.632 0.051,1.503 a 60.784,60.784 0 0 1 0.006,0.841 v 35 q 0,2.3 -0.15,3.45 -0.15,1.15 -0.95,2.65 -1.052,2.103 -5.44,2.505 a 24.881,24.881 0 0 1 -2.26,0.095 q -6.3,0 -7.7,-2.7 -0.496,-1.061 -0.716,-1.923 A 6.046,6.046 0 0 1 214.851,72.2 q -0.114,-0.829 -0.141,-2.397 A 62.372,62.372 0 0 1 214.701,68.7 Z m 14.923,-52.085 a 3.816,3.816 0 0 0 1.527,-1.565 12.061,12.061 0 0 0 0.304,-0.631 q 0.479,-1.075 0.596,-1.969 0.15,-1.15 0.15,-3.45 0,-1.653 -0.078,-2.712 A 13.228,13.228 0 0 0 232.051,5.55 5.287,5.287 0 0 0 231.911,4.861 Q 231.787,4.399 231.574,3.89 A 11.691,11.691 0 0 0 231.101,2.9 q -1.3,-2.7 -7.6,-2.7 -4.075,0 -6.123,1.095 a 3.856,3.856 0 0 0 -1.677,1.605 12.001,12.001 0 0 0 -0.208,0.437 q -0.516,1.145 -0.642,2.113 -0.15,1.15 -0.15,3.45 0,1.653 0.077,2.712 a 13.228,13.228 0 0 0 0.073,0.738 5.657,5.657 0 0 0 0.118,0.622 q 0.227,0.919 0.782,2.028 a 3.806,3.806 0 0 0 1.409,1.538 5.328,5.328 0 0 0 1.241,0.562 q 1.306,0.413 3.203,0.542 a 27.316,27.316 0 0 0 1.847,0.058 27.049,27.049 0 0 0 1.932,-0.064 q 1.841,-0.133 3.118,-0.536 a 5.633,5.633 0 0 0 1.123,-0.485 z M 175.651,57.2 a 7.911,7.911 0 0 0 5.749,2.692 9.869,9.869 0 0 0 0.401,0.008 8.397,8.397 0 0 0 6.136,-2.534 10.391,10.391 0 0 0 0.164,-0.166 10.042,10.042 0 0 0 1.683,-2.293 7.87,7.87 0 0 0 0.917,-3.707 8.748,8.748 0 0 0 -1.757,-5.243 11.488,11.488 0 0 0 -0.643,-0.807 7.885,7.885 0 0 0 -5.545,-2.717 10.916,10.916 0 0 0 -0.855,-0.033 9.227,9.227 0 0 0 -2.874,0.427 7.507,7.507 0 0 0 -3.476,2.373 10.569,10.569 0 0 0 -1.643,2.618 8.609,8.609 0 0 0 -0.707,3.432 8.347,8.347 0 0 0 1.672,4.995 11.18,11.18 0 0 0 0.778,0.955 z m -63.75,-6 q 0,3.3 2.6,5.95 a 8.487,8.487 0 0 0 6.155,2.649 10.244,10.244 0 0 0 0.145,10e-4 8.287,8.287 0 0 0 3.53,-0.74 8.174,8.174 0 0 0 2.62,-1.96 9.997,9.997 0 0 0 1.672,-2.462 8.109,8.109 0 0 0 0.778,-3.488 8.873,8.873 0 0 0 -1.548,-4.978 11.733,11.733 0 0 0 -0.802,-1.072 7.66,7.66 0 0 0 -5.574,-2.775 10.542,10.542 0 0 0 -0.726,-0.025 9.033,9.033 0 0 0 -3.157,0.531 7.92,7.92 0 0 0 -3.243,2.269 10.495,10.495 0 0 0 -1.675,2.546 8.463,8.463 0 0 0 -0.775,3.554 z" /></g></g>
   </svg>